<svg width="244" height="244" viewBox="0 0 244 244" fill="none" xmlns="http://www.w3.org/2000/svg">
<path d="M0.289128 128.174C-0.0813456 126.144 0.00995107 124.419 0.00995107 122.306V121.748C33.2188 118.899 69.3956 110.534 96.3218 91.291C104.048 94.8308 111.646 94.3479 118.934 90.7322C134.205 106.156 149.192 116.876 169.184 123.145C171.231 128.36 174.488 132.366 178.955 135.16C173.558 148.572 166.02 160.401 156.342 170.646C142.039 160.342 123.152 167.803 116.701 182.661C71.9653 182.176 26.8764 162.604 0.289128 128.174ZM116.422 200.264C93.5846 212.058 69.4808 218.417 44.9552 217.029C25.9852 201.111 12.3153 180.304 5.3141 158.631C36.1236 185.111 77.0729 200.222 116.422 200.264ZM166.95 196.911C192.938 191.49 216.817 181.041 236.183 165.057C210.764 231.331 134.216 261.629 71.4759 233.515C91.8422 230.58 110.974 223.546 127.309 214.235C143.634 223.59 163.061 213.75 166.95 196.911ZM214.967 128.733C224.97 127.995 234.724 127.259 244 125.659C243.982 128.157 243.724 130.615 243.721 132.924C226.281 155.244 200.066 170.493 173.93 177.631C183.683 165.79 190.917 152.637 195.984 139.351C203.949 138.318 210.455 134.659 214.967 128.733ZM219.434 110.85C218.332 102.568 214.189 95.8451 207.709 91.5704C209.757 72.6057 210.094 54.1012 208.546 36.2456C228.098 56.4293 239.937 82.1916 243.162 107.777C236.09 109.267 228.18 110.291 219.434 110.85ZM83.4803 78.7171C58.8192 94.2552 29.9435 101.803 1.40583 104.144C8.53267 59.6058 38.8692 22.7962 79.5718 7.74504C80.6776 22.2089 84.0269 36.1731 89.3428 48.2606C80.8083 56.9271 78.7815 68.0376 83.4803 78.7171ZM131.496 58.0401C144.35 42.0807 155.036 25.7722 161.088 6.62711C171.51 10.1667 180.909 14.7303 189.284 20.3188C192.209 43.3326 192.615 66.2552 190.4 87.6587C180.289 89.3843 172.339 95.5366 168.904 104.423C153.976 99.0197 141.756 88.9563 130.938 78.1581C133.655 71.1478 133.758 64.5767 131.496 58.0401ZM105.534 41.5545C100.34 28.7144 96.9499 16.272 96.88 2.71539C112.455 -0.867955 129.27 -0.748599 144.059 2.15663C138.409 17.9731 129.482 32.6322 120.051 44.6281C116.732 43.2106 108.649 40.0533 105.534 41.5545Z" fill="#F7F7F7"/>
</svg>
