<svg width="7" height="12" viewBox="0 0 7 12" fill="none" xmlns="http://www.w3.org/2000/svg">
<path fill-rule="evenodd" clip-rule="evenodd" d="M0.25 10.5833C0.250039 10.7646 0.303821 10.9418 0.404548 11.0925C0.505276 11.2432 0.648426 11.3607 0.8159 11.43C0.983375 11.4994 1.16766 11.5175 1.34545 11.4822C1.52324 11.4468 1.68655 11.3596 1.81475 11.2314L6.39808 6.64807C6.56993 6.47617 6.66647 6.24305 6.66647 5.99999C6.66647 5.75692 6.56993 5.5238 6.39808 5.3519L1.81475 0.768571C1.68655 0.640413 1.52324 0.55314 1.34545 0.517786C1.16766 0.482433 0.983375 0.500586 0.8159 0.56995C0.648426 0.639314 0.505276 0.756775 0.404548 0.907484C0.303821 1.05819 0.250039 1.23538 0.25 1.41665V10.5833Z" fill="white"/>
</svg>
