<svg width="30" height="54" viewBox="0 0 30 54" fill="none" xmlns="http://www.w3.org/2000/svg">
<path d="M15.4271 53.2084C11.3701 53.2084 7.93056 51.7972 5.10833 48.975C2.28611 46.1528 0.875 42.7132 0.875 38.6563V10.875C0.875 7.9646 1.91129 5.47311 3.98385 3.40054C6.05642 1.32797 8.54792 0.291687 11.4583 0.291687C14.3687 0.291687 16.8602 1.32797 18.9328 3.40054C21.0054 5.47311 22.0417 7.9646 22.0417 10.875V36.0104C22.0417 37.8625 21.4023 39.428 20.1234 40.7068C18.8446 41.9856 17.2792 42.625 15.4271 42.625C13.575 42.625 12.0095 41.9856 10.7307 40.7068C9.45191 39.428 8.8125 37.8625 8.8125 36.0104V10.875H12.7812V36.0104C12.7812 36.7601 13.0352 37.3889 13.5433 37.8969C14.0512 38.4049 14.6792 38.658 15.4271 38.6563C16.1767 38.6563 16.8056 38.4023 17.3136 37.8943C17.8216 37.3863 18.0747 36.7583 18.0729 36.0104V10.875C18.0729 9.02294 17.4335 7.45749 16.1547 6.17867C14.8759 4.89985 13.3104 4.26044 11.4583 4.26044C9.60625 4.26044 8.0408 4.89985 6.76198 6.17867C5.48316 7.45749 4.84375 9.02294 4.84375 10.875V38.6563C4.84375 41.5667 5.88003 44.0582 7.9526 46.1308C10.0252 48.2033 12.5167 49.2396 15.4271 49.2396C18.3375 49.2396 20.829 48.2033 22.9016 46.1308C24.9741 44.0582 26.0104 41.5667 26.0104 38.6563V10.875H29.9792V38.6563C29.9792 42.7132 28.5681 46.1528 25.7458 48.975C22.9236 51.7972 19.484 53.2084 15.4271 53.2084Z" fill="#353B3C"/>
</svg>
