<svg width="99" height="99" viewBox="0 0 99 99" fill="none" xmlns="http://www.w3.org/2000/svg">
<path d="M0.116982 52.1152C-0.0329128 51.2936 0.00402624 50.5958 0.00402624 49.7411V49.515C13.4404 48.3623 28.0778 44.9778 38.9722 37.1921C42.0981 38.6243 45.1723 38.4289 48.1212 36.966C54.3 43.2066 60.3635 47.5437 68.4525 50.0802C69.2807 52.1906 70.5986 53.8111 72.4059 54.9416C70.2222 60.3681 67.1725 65.1542 63.2568 69.2993C57.4694 65.1304 49.8279 68.1493 47.2178 74.1607C29.1175 73.9646 10.8743 66.0455 0.116982 52.1152ZM47.1046 81.283C37.8647 86.055 28.1122 88.6277 18.189 88.0662C10.5137 81.6258 4.98281 73.207 2.15011 64.438C14.6157 75.152 31.184 81.2661 47.1046 81.283ZM67.5489 79.9264C78.0635 77.7332 87.725 73.5052 95.5606 67.0383C85.276 93.853 54.3042 106.111 28.9195 94.7364C37.1597 93.5491 44.9004 90.7032 51.5097 86.9359C58.1148 90.7206 65.9753 86.7394 67.5489 79.9264ZM86.9765 52.3413C91.0238 52.0425 94.9704 51.7447 98.7234 51.0977C98.7161 52.1082 98.6118 53.1029 98.6104 54.0371C91.5541 63.0676 80.9475 69.2374 70.3727 72.1257C74.3188 67.3349 77.2459 62.0129 79.2958 56.6373C82.5186 56.2192 85.1512 54.7388 86.9765 52.3413ZM88.7838 45.1058C88.3382 41.7547 86.6619 39.0347 84.0398 37.3051C84.8684 29.6319 85.005 22.1449 84.3786 14.9205C92.2894 23.0869 97.0797 33.5104 98.3845 43.8622C95.5231 44.4652 92.3228 44.8798 88.7838 45.1058ZM33.7765 32.1046C23.7985 38.3914 12.1152 41.4453 0.568806 42.3926C3.45235 24.3721 15.7266 9.4788 32.1951 3.38905C32.6425 9.2412 33.9976 14.8911 36.1485 19.7818C32.6954 23.2883 31.8753 27.7837 33.7765 32.1046ZM53.204 23.7386C58.4047 17.2814 62.7284 10.6829 65.1769 2.93673C69.3937 4.36887 73.1964 6.21533 76.5849 8.47642C77.7685 17.7879 77.933 27.0625 77.0367 35.7224C72.9455 36.4206 69.7292 38.9099 68.3394 42.5055C62.2995 40.3191 57.3552 36.2475 52.978 31.8785C54.0775 29.0421 54.119 26.3834 53.204 23.7386ZM42.6996 17.0685C40.598 11.8733 39.2263 6.8391 39.198 1.35403C45.4998 -0.095807 52.3032 -0.0475149 58.2868 1.12795C56.0008 7.52736 52.3891 13.4585 48.573 18.3121C47.2303 17.7386 43.9597 16.4611 42.6996 17.0685Z" fill="#2CDA9D"/>
</svg>
